<?xml version="1.0" standalone="no"?>
<!DOCTYPE svg PUBLIC "-//W3C//DTD SVG 20010904//EN"
 "http://www.w3.org/TR/2001/REC-SVG-20010904/DTD/svg10.dtd">
<svg version="1.0" xmlns="http://www.w3.org/2000/svg"
 width="92.000000pt" height="92.000000pt" viewBox="0 0 92.000000 92.000000"
 preserveAspectRatio="xMidYMid meet">
<metadata>
Created by potrace 1.11, written by Peter Selinger 2001-2013
</metadata>
<g transform="translate(0.000000,92.000000) scale(0.100000,-0.100000)"
fill="#000000" stroke="none">
<path d="M485 901 c-35 -21 -85 -70 -85 -82 0 -5 -20 -9 -44 -9 -24 0 -58 -3
-75 -6 -31 -6 -109 -72 -128 -108 -9 -17 -12 -17 -42 -2 -17 9 -49 19 -71 21
l-40 4 0 -360 0 -359 460 0 460 0 0 334 0 334 -31 11 c-18 6 -52 11 -75 11
-41 0 -44 2 -44 28 0 31 -33 108 -58 136 -9 10 -34 29 -54 42 -48 30 -129 33
-173 5z m104 -277 c110 -59 172 -166 179 -305 4 -80 3 -87 -16 -93 -13 -5 -21
-19 -26 -45 -8 -54 -51 -101 -93 -101 -17 0 -35 5 -39 11 -7 13 -8 289 0 296
3 3 19 7 36 8 23 2 36 -5 60 -31 16 -19 31 -34 34 -34 12 0 -30 120 -55 157
-137 199 -411 145 -483 -95 -8 -29 -12 -52 -7 -52 4 0 20 13 35 29 20 21 35
28 57 26 17 -1 32 -5 35 -8 7 -7 5 -287 -2 -298 -3 -5 -20 -9 -37 -9 -41 0
-85 47 -93 100 -4 27 -12 40 -27 44 -19 5 -20 11 -15 94 10 163 88 277 227
329 60 22 167 12 230 -23z"/>
</g>
</svg>
